<?xml version="1.0" encoding="UTF-8" standalone="no"?>
<!-- Uploaded to: SVG Repo, www.svgrepo.com, Transformed by: SVG Repo Mixer Tools -->

<svg
   width="800px"
   height="800px"
   viewBox="0 0 16 16"
   fill="#6d68cc"
   stroke="#6d68cc"
   stroke-width="0.00016"
   version="1.1"
   id="svg1"
   sodipodi:docname="file.svg"
   inkscape:version="1.4.3 (0d15f75, 2025-12-25)"
   xmlns:inkscape="http://www.inkscape.org/namespaces/inkscape"
   xmlns:sodipodi="http://sodipodi.sourceforge.net/DTD/sodipodi-0.dtd"
   xmlns="http://www.w3.org/2000/svg"
   xmlns:svg="http://www.w3.org/2000/svg">
  <defs
     id="defs1">
    <rect
       x="272.08428"
       y="220.72143"
       width="532.32901"
       height="220.10111"
       id="rect1" />
  </defs>
  <sodipodi:namedview
     id="namedview1"
     pagecolor="#ffffff"
     bordercolor="#000000"
     borderopacity="0.25"
     inkscape:showpageshadow="2"
     inkscape:pageopacity="0.0"
     inkscape:pagecheckerboard="0"
     inkscape:deskcolor="#d1d1d1"
     inkscape:zoom="1.01875"
     inkscape:cx="383.31288"
     inkscape:cy="411.77914"
     inkscape:window-width="1920"
     inkscape:window-height="1017"
     inkscape:window-x="-8"
     inkscape:window-y="-8"
     inkscape:window-maximized="1"
     inkscape:current-layer="svg1" />
  <g
     id="SVGRepo_bgCarrier"
     stroke-width="0" />
  <g
     id="SVGRepo_tracerCarrier"
     stroke-linecap="round"
     stroke-linejoin="round" />
  <g
     id="SVGRepo_iconCarrier">
    <path
       fill-rule="evenodd"
       clip-rule="evenodd"
       d="m 13.71,4.29 -3,-3 L 10,1 H 4 L 3,2 v 12 l 1,1 h 9 l 1,-1 V 5 Z M 13,5 v 9 H 4 V 2 h 6 m 0,0 3,3"
       id="path1"
       sodipodi:nodetypes="cccccccccccccccccc" />
  </g>
  <path
     d="m 458.65527,391.87649 h -33 l -9.5625,-29.90625 h -47.8125 l -9.46875,29.90625 h -32.8125 l 48.9375,-134.4375 h 35.90625 z m -49.5,-53.15625 -14.4375,-45.1875 q -1.59375,-5.0625 -2.25,-12.09375 h -0.75 q -0.46875,5.90625 -2.34375,11.71875 l -14.625,45.5625 z m 60.09375,48 v -30 q 8.15625,6.84375 17.71875,10.3125 9.5625,3.375 19.3125,3.375 5.71875,0 9.9375,-1.03125 4.3125,-1.03125 7.125,-2.8125 2.90625,-1.875 4.3125,-4.3125 1.40625,-2.53125 1.40625,-5.4375 0,-3.9375 -2.25,-7.03125 -2.25,-3.09375 -6.1875,-5.71875 -3.84375,-2.625 -9.1875,-5.0625 -5.34375,-2.4375 -11.53125,-4.96875 -15.75,-6.5625 -23.53125,-16.03125 -7.6875,-9.46875 -7.6875,-22.875 0,-10.5 4.21875,-18 4.21875,-7.59375 11.4375,-12.46875 7.3125,-4.875 16.875,-7.125 9.5625,-2.34375 20.25,-2.34375 10.5,0 18.5625,1.3125 8.15625,1.21875 15,3.84375 v 28.03125 q -3.375,-2.34375 -7.40625,-4.125 -3.9375,-1.78125 -8.15625,-2.90625 -4.21875,-1.21875 -8.4375,-1.78125 -4.125,-0.5625 -7.875,-0.5625 -5.15625,0 -9.375,1.03125 -4.21875,0.9375 -7.125,2.71875 -2.90625,1.78125 -4.5,4.3125 -1.59375,2.4375 -1.59375,5.53125 0,3.375 1.78125,6.09375 1.78125,2.625 5.0625,5.0625 3.28125,2.34375 7.96875,4.6875 4.6875,2.25 10.59375,4.6875 8.0625,3.375 14.4375,7.21875 6.46875,3.75 11.0625,8.53125 4.59375,4.78125 7.03125,10.96875 2.4375,6.09375 2.4375,14.25 0,11.25 -4.3125,18.9375 -4.21875,7.59375 -11.53125,12.375 -7.3125,4.6875 -17.0625,6.75 -9.65625,2.0625 -20.4375,2.0625 -11.0625,0 -21.09375,-1.875 -9.9375,-1.875 -17.25,-5.625 z m 267,5.15625 h -29.90625 v -80.4375 q 0,-13.03125 1.125,-28.78125 h -0.75 q -2.34375,12.375 -4.21875,17.8125 l -31.5,91.40625 h -24.75 l -32.0625,-90.46875 q -1.3125,-3.65625 -4.21875,-18.75 h -0.84375 q 1.21875,19.875 1.21875,34.875 v 74.34375 h -27.28125 v -134.4375 h 44.34375 l 27.46875,79.6875 q 3.28125,9.5625 4.78125,19.21875 h 0.5625 q 2.53125,-11.15625 5.34375,-19.40625 l 27.46875,-79.5 h 43.21875 z"
     id="text1"
     style="font-weight:bold;font-size:192px;line-height:1;font-family:'Segoe UI';-inkscape-font-specification:'Segoe UI Bold';text-align:center;text-anchor:middle;white-space:pre;shape-padding:22.211;fill-rule:evenodd"
     transform="matrix(0.01919323,0,0,0.02076771,-1.8139855,1.2566287)"
     aria-label="ASM" />
</svg>
