<svg xmlns="http://www.w3.org/2000/svg"
     viewBox="0 0 64 64"
     width="8"
     height="8"
     fill="#ffffff"
     stroke="#ffffff"
     stroke-width="5"
     stroke-linecap="round"
     stroke-linejoin="round">

	<path d="M22.925 40.979L7.524 56.381"/>
	<path d="M14.599 32.653L31.252 49.306C31.582 49.636 32.002 49.861 32.46 49.953C32.917 50.045 33.392 50.000 33.824 49.823C34.256 49.647 34.627 49.346 34.888 48.96C35.15 48.573 35.292 48.118 35.296 47.651L35.344 42.079C35.347 41.705 35.439 41.337 35.612 41.005C35.785 40.674 36.034 40.387 36.338 40.17L54.53 27.203C54.81 27.003 55.042 26.745 55.212 26.446C55.382 26.148 55.484 25.815 55.513 25.472C55.541 25.13 55.495 24.785 55.377 24.463C55.259 24.14 55.073 23.847 54.83 23.603L40.306 9.075C40.063 8.833 39.769 8.646 39.446 8.528C39.124 8.41 38.779 8.364 38.437 8.392C38.094 8.421 37.762 8.524 37.463 8.693C37.164 8.863 36.906 9.096 36.706 9.375L23.738 27.567C23.521 27.872 23.235 28.121 22.903 28.293C22.572 28.466 22.204 28.558 21.83 28.561L16.258 28.609C15.791 28.612 15.335 28.754 14.948 29.015C14.561 29.277 14.26 29.647 14.083 30.079C13.905 30.511 13.86 30.986 13.952 31.444C14.043 31.902 14.269 32.323 14.599 32.653Z"/>
</svg>